<?xml version="1.0" encoding="UTF-8" standalone="no"?>
<svg
   xmlns:dc="http://purl.org/dc/elements/1.1/"
   xmlns:cc="http://creativecommons.org/ns#"
   xmlns:rdf="http://www.w3.org/1999/02/22-rdf-syntax-ns#"
   xmlns:svg="http://www.w3.org/2000/svg"
   xmlns="http://www.w3.org/2000/svg"
   xmlns:sodipodi="http://sodipodi.sourceforge.net/DTD/sodipodi-0.dtd"
   xmlns:inkscape="http://www.inkscape.org/namespaces/inkscape"
   version="1.1"
   id="Calque_1"
   x="0px"
   y="0px"
   viewBox="0 0 303.5 95.9"
   style="enable-background:new 0 0 303.5 95.9;"
   xml:space="preserve"
   sodipodi:docname="logo-schr-ecran.svg"
   inkscape:version="1.0.2 (e86c870879, 2021-01-15, custom)"><metadata
   id="metadata134"><rdf:RDF><cc:Work
       rdf:about=""><dc:format>image/svg+xml</dc:format><dc:type
         rdf:resource="http://purl.org/dc/dcmitype/StillImage" /><dc:title></dc:title></cc:Work></rdf:RDF></metadata><defs
   id="defs132" /><sodipodi:namedview
   pagecolor="#ffffff"
   bordercolor="#666666"
   borderopacity="1"
   objecttolerance="10"
   gridtolerance="10"
   guidetolerance="10"
   inkscape:pageopacity="0"
   inkscape:pageshadow="2"
   inkscape:window-width="2560"
   inkscape:window-height="1440"
   id="namedview130"
   showgrid="false"
   inkscape:zoom="5.5255354"
   inkscape:cx="200.10583"
   inkscape:cy="47.950001"
   inkscape:window-x="0"
   inkscape:window-y="0"
   inkscape:window-maximized="0"
   inkscape:current-layer="Calque_1" />
<style
   type="text/css"
   id="style2">
	.st0{enable-background:new    ;}
	.st1{fill:#221F20;}
</style>
<g
   id="Groupe_32"
   transform="translate(-23 -24.752)"
   style="fill:#ffffff">
	<g
   class="st0"
   id="g40"
   style="fill:#ffffff">
		<path
   class="st1"
   d="M114.1,68.8c-3.2,0-5.3-1.5-5.3-4.4l0.2-0.2h1.5l0.2,0.2c0,1.9,1.3,2.7,3.6,2.7c1.7,0,3-0.6,3-2.1    c0-1.7-1.1-2.1-3.8-2.5s-4.4-1.5-4.4-3.8c0-1.7,1.3-3.6,4.7-3.6c2.8,0,4.9,1.1,4.9,4l-0.2,0.2h-1.5l-0.2-0.2    c0-1.5-0.8-2.3-3.2-2.3c-1.7,0-2.7,0.8-2.7,1.9c0,1.5,0.9,1.9,3.6,2.3s4.6,1.3,4.6,4C119.2,67.1,117.7,68.8,114.1,68.8z"
   id="path4"
   style="fill:#ffffff" />
		<path
   class="st1"
   d="M125.1,58.9c2.8,0,4.6,1.9,4.6,4.9c0,3-1.7,4.9-4.6,4.9s-4.6-1.9-4.6-4.9C120.6,60.8,122.3,58.9,125.1,58.9z     M125.1,67.1c1.7,0,2.7-1.1,2.7-3.2c0-2.1-1-3.2-2.7-3.2c-1.7,0-2.7,1.1-2.7,3.2C122.5,66,123.4,67.1,125.1,67.1z"
   id="path6"
   style="fill:#ffffff" />
		<path
   class="st1"
   d="M135.4,67.1c1.5,0,2.1-0.8,2.3-1.5l0.2-0.2h1.5l0.2,0.2c-0.2,1.7-1.5,3.2-4.2,3.2c-2.8,0-4.6-1.9-4.6-4.9    c0-3,1.7-4.9,4.6-4.9c2.7,0,4,1.5,4.2,3.2l-0.2,0.2h-1.5l-0.2-0.2c-0.2-0.8-0.8-1.5-2.3-1.5c-1.7,0-2.7,1.1-2.7,3.2    C132.7,66,133.7,67.1,135.4,67.1z"
   id="path8"
   style="fill:#ffffff" />
		<path
   class="st1"
   d="M143,57.6h-1.5l-0.2-0.2v-1.5l0.2-0.2h1.5l0.2,0.2v1.5L143,57.6z M143,68.6h-1.5l-0.2-0.2v-9.1l0.2-0.2h1.5    l0.2,0.2v9.1L143,68.6z"
   id="path10"
   style="fill:#ffffff" />
		<path
   class="st1"
   d="M144.9,63.9c0-2.7,1.3-4.9,4.4-4.9s4.4,2.3,4.4,4.9v0.6l-0.2,0.2h-6.3l-0.2,0.2c0,0.4,0.2,2.3,2.5,2.3    c0.8,0,1.5-0.2,1.9-1.1l0.2-0.2h1.5l0.2,0.2c-0.2,1.5-1.5,2.8-3.8,2.8C146.4,68.8,144.9,66.7,144.9,63.9z M151.5,62.9    c0-0.6-0.2-2.3-2.3-2.3c-2.1,0-2.3,1.7-2.3,2.3l0.2,0.2h4.2L151.5,62.9z M149.5,57.8l-0.4,0.2h-1l-0.2-0.2v-0.4l1.7-1.9l0.4-0.2    h1.3l0.2,0.2v0.4L149.5,57.8z"
   id="path12"
   style="fill:#ffffff" />
		<path
   class="st1"
   d="M160.3,68.6h-1.5c-1.3,0-2.7-0.8-2.7-2.5V61l-0.2-0.2h-1.3l-0.2-0.2v-1.3l0.2-0.2h1.3l0.2-0.2v-1.7l0.2-0.2    h1.5l0.2,0.2v1.7l0.2,0.2h2.1l0.2,0.2v1.3l-0.2,0.2h-2.1L158,61v5.1c0,0.6,0.4,0.8,0.8,0.8h1.5l0.2,0.2v1.3L160.3,68.6z"
   id="path14"
   style="fill:#ffffff" />
		<path
   class="st1"
   d="M161.4,63.9c0-2.7,1.3-4.9,4.4-4.9s4.4,2.3,4.4,4.9v0.6l-0.2,0.2h-6.3l-0.2,0.2c0,0.4,0.2,2.3,2.5,2.3    c0.8,0,1.5-0.2,1.9-1.1l0.2-0.2h1.5l0.2,0.2c-0.2,1.5-1.5,2.8-3.8,2.8C162.9,68.8,161.4,66.7,161.4,63.9z M168.1,62.9    c0-0.6-0.2-2.3-2.3-2.3c-2.1,0-2.3,1.7-2.3,2.3l0.2,0.2h4.2L168.1,62.9z M166,57.8l-0.4,0.2h-1l-0.2-0.2v-0.4l1.7-1.9l0.4-0.2h1.3    l0.2,0.2v0.4L166,57.8z"
   id="path16"
   style="fill:#ffffff" />
		<path
   class="st1"
   d="M176.2,62c0-4,2.3-6.8,6.3-6.8c3,0,4.9,1.7,5.3,4l-0.2,0.2h-1.5l-0.2-0.2c-0.4-1.3-1.5-2.3-3.4-2.3    c-2.8,0-4.4,2.1-4.4,5.1c0,3,1.5,5.1,4.4,5.1c2.1,0,3-1.1,3.4-2.5l0.2-0.2h1.5l0.2,0.2c-0.4,2.3-2.1,4.2-5.3,4.2    C178.5,68.8,176.2,66,176.2,62z"
   id="path18"
   style="fill:#ffffff" />
		<path
   class="st1"
   d="M193.7,58.9c2.8,0,4.6,1.9,4.6,4.9c0,3-1.7,4.9-4.6,4.9s-4.6-1.9-4.6-4.9C189.2,60.8,190.9,58.9,193.7,58.9z     M193.7,67.1c1.7,0,2.7-1.1,2.7-3.2c0-2.1-1-3.2-2.7-3.2s-2.7,1.1-2.7,3.2C191.1,66,192,67.1,193.7,67.1z"
   id="path20"
   style="fill:#ffffff" />
		<path
   class="st1"
   d="M204,58.9c2.8,0,4.6,1.9,4.6,4.9c0,3-1.7,4.9-4.6,4.9s-4.6-1.9-4.6-4.9C199.4,60.8,201.1,58.9,204,58.9z     M204,67.1c1.7,0,2.7-1.1,2.7-3.2c0-2.1-1-3.2-2.7-3.2s-2.7,1.1-2.7,3.2C201.3,66,202.3,67.1,204,67.1z"
   id="path22"
   style="fill:#ffffff" />
		<path
   class="st1"
   d="M214.8,68.8c-1.7,0-2.5-1.1-2.5-1.1h-0.2v4.6l-0.2,0.2h-1.5l-0.2-0.2V59.3l0.2-0.2h1.3l0.2,0.2l0.2,0.8h0.2    c0,0,0.8-1.1,2.5-1.1c2.7,0,4.2,2.1,4.2,4.9C219,66.7,217.5,68.8,214.8,68.8z M214.6,60.7c-1.5,0-2.5,0.9-2.5,3.2    c0,2.3,0.9,3.2,2.5,3.2c1.5,0,2.5-1.1,2.5-3.2C217.1,61.8,216.1,60.7,214.6,60.7z"
   id="path24"
   style="fill:#ffffff" />
		<path
   class="st1"
   d="M220.1,63.9c0-2.7,1.3-4.9,4.4-4.9c3,0,4.4,2.3,4.4,4.9v0.6l-0.2,0.2h-6.3l-0.2,0.2c0,0.4,0.2,2.3,2.5,2.3    c0.8,0,1.5-0.2,1.9-1.1l0.2-0.2h1.5l0.2,0.2c-0.2,1.5-1.5,2.8-3.8,2.8C221.7,68.8,220.1,66.7,220.1,63.9z M226.8,62.9    c0-0.6-0.2-2.3-2.3-2.3c-2.1,0-2.3,1.7-2.3,2.3l0.2,0.2h4.2L226.8,62.9z M224.7,57.8l-0.4,0.2h-1l-0.2-0.2v-0.4l1.7-1.9l0.4-0.2    h1.3l0.2,0.2v0.4L224.7,57.8z"
   id="path26"
   style="fill:#ffffff" />
		<path
   class="st1"
   d="M235.9,60.8h-1c-1.5,0-2.5,0.6-2.5,2.8v4.7l-0.2,0.2h-1.5l-0.2-0.2v-9.1l0.2-0.2h1.3l0.2,0.2l0.2,0.8h0.2    c0.6-0.6,1.1-1,2.5-1h0.8l0.2,0.2v1.3L235.9,60.8z"
   id="path28"
   style="fill:#ffffff" />
		<path
   class="st1"
   d="M244.5,68.6h-1.3l-0.2-0.2l-0.2-0.8h-0.2c0,0-0.8,1.1-2.7,1.1c-2.1,0-3.2-1.1-3.2-3c0-2.1,1.7-3,4.2-3    c0.9,0,1.7,0.2,1.7,0.2l0.2-0.2v-0.4c0-1.3-0.6-1.7-1.9-1.7c-1.3,0-1.9,0.4-1.9,1.1l-0.2,0.2h-1.5l-0.2-0.2c0-1.3,1-2.8,3.8-2.8    s3.8,1.3,3.8,4.2v5.3L244.5,68.6z M242.7,64.6l-0.2-0.2c0,0-0.6-0.2-1.5-0.2c-1.7,0-2.5,0.6-2.5,1.5s0.6,1.3,1.7,1.3    c1.5,0,2.5-0.8,2.5-1.9V64.6z"
   id="path30"
   style="fill:#ffffff" />
		<path
   class="st1"
   d="M251.7,68.6h-1.5c-1.3,0-2.7-0.8-2.7-2.5V61l-0.2-0.2H246l-0.2-0.2v-1.3l0.2-0.2h1.3l0.2-0.2v-1.7l0.2-0.2    h1.5l0.2,0.2v1.7l0.2,0.2h2.1l0.2,0.2v1.3l-0.2,0.2h-2.1l-0.2,0.2v5.1c0,0.6,0.4,0.8,0.8,0.8h1.5l0.2,0.2v1.3L251.7,68.6z"
   id="path32"
   style="fill:#ffffff" />
		<path
   class="st1"
   d="M255.5,57.6H254l-0.2-0.2v-1.5l0.2-0.2h1.5l0.2,0.2v1.5L255.5,57.6z M255.5,68.6H254l-0.2-0.2v-9.1l0.2-0.2    h1.5l0.2,0.2v9.1L255.5,68.6z"
   id="path34"
   style="fill:#ffffff" />
		<path
   class="st1"
   d="M262.7,68.4l-0.2,0.2h-1.7l-0.2-0.2l-3.2-7.8v-1.3l0.2-0.2h1.1l0.2,0.2l2.7,6.6h0.2l2.7-6.6l0.2-0.2h1.1    l0.2,0.2v1.3L262.7,68.4z"
   id="path36"
   style="fill:#ffffff" />
		<path
   class="st1"
   d="M266.9,63.9c0-2.7,1.3-4.9,4.4-4.9c3,0,4.4,2.3,4.4,4.9v0.6l-0.2,0.2h-6.3l-0.2,0.2c0,0.4,0.2,2.3,2.5,2.3    c0.8,0,1.5-0.2,1.9-1.1l0.2-0.2h1.5l0.2,0.2c-0.2,1.5-1.5,2.8-3.8,2.8C268.4,68.8,266.9,66.7,266.9,63.9z M273.5,62.9    c0-0.6-0.2-2.3-2.3-2.3c-2.1,0-2.3,1.7-2.3,2.3l0.2,0.2h4.2L273.5,62.9z"
   id="path38"
   style="fill:#ffffff" />
	</g>
	<g
   class="st0"
   id="g66"
   style="fill:#ffffff">
		<path
   class="st1"
   d="M117.2,92.6h-1.3l-0.2-0.2l-0.2-0.8h-0.2c0,0-0.8,1.1-2.5,1.1c-2.7,0-4.2-2.1-4.2-4.9s1.5-4.9,4.2-4.9    c1.7,0,2.5,1.1,2.5,1.1h0.2v-4.6l0.2-0.2h1.5l0.2,0.2v12.9L117.2,92.6z M113,84.7c-1.5,0-2.5,1.1-2.5,3.2s0.9,3.2,2.5,3.2    c1.5,0,2.5-1,2.5-3.2C115.4,85.6,114.5,84.7,113,84.7z"
   id="path42"
   style="fill:#ffffff" />
		<path
   class="st1"
   d="M122.3,82.2l-1.1,1.5l-0.4,0.2H120v-0.2l1.1-1.7v-0.2l-0.2-0.2h-0.6l-0.2-0.2v-1.9l0.2-0.2h1.9l0.2,0.2v2.1    L122.3,82.2z"
   id="path44"
   style="fill:#ffffff" />
		<path
   class="st1"
   d="M135.6,92.6h-1.5l-0.2-0.2v-5.5l-0.2-0.2h-6.3l-0.2,0.2v5.5l-0.2,0.2h-1.5l-0.2-0.2V79.5l0.2-0.2h1.5l0.2,0.2    v5.3l0.2,0.2h6.3l0.2-0.2v-5.3l0.2-0.2h1.5l0.2,0.2v12.9L135.6,92.6z"
   id="path46"
   style="fill:#ffffff" />
		<path
   class="st1"
   d="M145.7,92.6h-1.3l-0.2-0.2l-0.2-0.8h-0.2c0,0-0.8,1.1-2.7,1.1c-2.1,0-3.2-1.1-3.2-3c0-2.1,1.7-3,4.2-3    c0.9,0,1.7,0.2,1.7,0.2l0.2-0.2v-0.4c0-1.3-0.6-1.7-1.9-1.7c-1.3,0-1.9,0.4-1.9,1.1L140,86h-1.5l-0.2-0.2c0-1.3,1-2.8,3.8-2.8    c2.8,0,3.8,1.3,3.8,4.2v5.3L145.7,92.6z M143.9,88.6l-0.2-0.2c0,0-0.6-0.2-1.5-0.2c-1.7,0-2.5,0.6-2.5,1.5s0.6,1.3,1.7,1.3    c1.5,0,2.5-0.8,2.5-1.9V88.6z"
   id="path48"
   style="fill:#ffffff" />
		<path
   class="st1"
   d="M152.5,92.8c-1.7,0-2.5-1.1-2.5-1.1h-0.2l-0.2,0.8l-0.2,0.2h-1.3l-0.2-0.2V79.5l0.2-0.2h1.5l0.2,0.2v4.6h0.2    c0,0,0.8-1.1,2.5-1.1c2.5,0,4.2,1.9,4.2,4.9C156.7,90.7,155,92.8,152.5,92.8z M152.3,84.7c-1.5,0-2.5,0.9-2.5,3.2    c0,2.3,0.9,3.2,2.5,3.2c1.5,0,2.5-1.1,2.5-3.2S153.8,84.7,152.3,84.7z"
   id="path50"
   style="fill:#ffffff" />
		<path
   class="st1"
   d="M160.1,81.6h-1.5l-0.2-0.2v-1.5l0.2-0.2h1.5l0.2,0.2v1.5L160.1,81.6z M160.1,92.6h-1.5l-0.2-0.2v-9.1l0.2-0.2    h1.5l0.2,0.2v9.1L160.1,92.6z"
   id="path52"
   style="fill:#ffffff" />
		<path
   class="st1"
   d="M167.7,92.6h-1.5c-1.3,0-2.7-0.8-2.7-2.5V85l-0.2-0.2H162l-0.2-0.2v-1.3l0.2-0.2h1.3l0.2-0.2v-1.7l0.2-0.2    h1.5l0.2,0.2v1.7l0.2,0.2h2.1l0.2,0.2v1.3l-0.2,0.2h-2.1l-0.2,0.2v5.1c0,0.6,0.4,0.8,0.8,0.8h1.5l0.2,0.2v1.3L167.7,92.6z"
   id="path54"
   style="fill:#ffffff" />
		<path
   class="st1"
   d="M176.8,92.6h-1.3l-0.2-0.2l-0.2-0.8h-0.2c0,0-0.8,1.1-2.7,1.1c-2.1,0-3.2-1.1-3.2-3c0-2.1,1.7-3,4.2-3    c1,0,1.7,0.2,1.7,0.2l0.2-0.2v-0.4c0-1.3-0.6-1.7-1.9-1.7s-1.9,0.4-1.9,1.1l-0.2,0.2h-1.5l-0.2-0.2c0-1.3,1-2.8,3.8-2.8    s3.8,1.3,3.8,4.2v5.3L176.8,92.6z M175.1,88.6l-0.2-0.2c0,0-0.6-0.2-1.5-0.2c-1.7,0-2.5,0.6-2.5,1.5s0.6,1.3,1.7,1.3    c1.5,0,2.5-0.8,2.5-1.9V88.6z"
   id="path56"
   style="fill:#ffffff" />
		<path
   class="st1"
   d="M184,92.6h-1.5c-1.3,0-2.7-0.8-2.7-2.5V85l-0.2-0.2h-1.3l-0.2-0.2v-1.3l0.2-0.2h1.3l0.2-0.2v-1.7L180,81h1.5    l0.2,0.2v1.7l0.2,0.2h2.1l0.2,0.2v1.3l-0.2,0.2h-2.1l-0.2,0.2v5.1c0,0.6,0.4,0.8,0.8,0.8h1.5l0.2,0.2v1.3L184,92.6z"
   id="path58"
   style="fill:#ffffff" />
		<path
   class="st1"
   d="M187.8,81.6h-1.5l-0.2-0.2v-1.5l0.2-0.2h1.5l0.2,0.2v1.5L187.8,81.6z M187.8,92.6h-1.5l-0.2-0.2v-9.1l0.2-0.2    h1.5l0.2,0.2v9.1L187.8,92.6z"
   id="path60"
   style="fill:#ffffff" />
		<path
   class="st1"
   d="M194.3,82.9c2.8,0,4.6,1.9,4.6,4.9c0,3-1.7,4.9-4.6,4.9s-4.6-1.9-4.6-4.9C189.7,84.8,191.4,82.9,194.3,82.9z     M194.3,91.1c1.7,0,2.7-1.1,2.7-3.2s-1-3.2-2.7-3.2c-1.7,0-2.7,1.1-2.7,3.2S192.6,91.1,194.3,91.1z"
   id="path62"
   style="fill:#ffffff" />
		<path
   class="st1"
   d="M208.5,92.6H207l-0.2-0.2v-5.5c0-1-0.2-2.3-1.9-2.3s-2.5,0.9-2.5,3.2v4.6l-0.2,0.2h-1.5l-0.2-0.2v-9.1    l0.2-0.2h1.3l0.2,0.2l0.2,0.8h0.2c0,0,0.8-1.1,2.5-1.1c2.7,0,3.6,1.7,3.6,4v5.5L208.5,92.6z"
   id="path64"
   style="fill:#ffffff" />
	</g>
	<g
   class="st0"
   id="g110"
   style="fill:#ffffff">
		<path
   class="st1"
   d="M117.7,111.1v0.2l2.5,3.2v1.9l-0.2,0.2h-1.1l-0.4-0.2l-3.8-4.9l-0.4-0.2h-1.9l-0.2,0.2v4.9l-0.2,0.2h-2.3    l-0.2-0.2v-12.9l0.2-0.2h6.3c2.7,0,4.6,1.3,4.6,4C120.6,109.4,119.2,110.7,117.7,111.1z M116,105.6h-3.6l-0.2,0.2v3l0.2,0.2h3.6    c1.1,0,1.9-0.4,1.9-1.7S117.2,105.6,116,105.6z"
   id="path68"
   style="fill:#ffffff" />
		<path
   class="st1"
   d="M130.8,112.6l-0.2,0.2h-5.9l-0.2,0.2c0,0.4,0.4,1.5,1.9,1.5c0.6,0,1.1-0.2,1.3-0.6l0.2-0.2h2.3l0.2,0.2    c-0.2,1.1-1.1,2.8-4,2.8c-3.2,0-4.7-2.3-4.7-4.9c0-2.7,1.5-4.9,4.6-4.9s4.6,2.3,4.6,4.9V112.6z M128,110.7c0-0.2-0.2-1.5-1.7-1.5    c-1.5,0-1.7,1.3-1.7,1.5l0.2,0.2h3L128,110.7z"
   id="path70"
   style="fill:#ffffff" />
		<path
   class="st1"
   d="M141.3,116.6H139l-0.2-0.2v-5.5c0-1-0.4-1.7-1.5-1.7c-1.3,0-2.1,0.8-2.1,2.5v4.7l-0.2,0.2h-2.3l-0.2-0.2v-9.1    l0.2-0.2h2.1l0.2,0.2l0.2,0.6h0.2c0.4-0.4,1.1-1,2.5-1c2.3,0,3.6,1.5,3.6,3.8v5.7L141.3,116.6z"
   id="path72"
   style="fill:#ffffff" />
		<path
   class="st1"
   d="M152.1,112.6l-0.2,0.2H146l-0.2,0.2c0,0.4,0.4,1.5,1.9,1.5c0.6,0,1.1-0.2,1.3-0.6l0.2-0.2h2.3l0.2,0.2    c-0.2,1.1-1.1,2.8-4,2.8c-3.2,0-4.7-2.3-4.7-4.9c0-2.7,1.5-4.9,4.6-4.9s4.6,2.3,4.6,4.9V112.6z M149.3,110.7    c0-0.2-0.2-1.5-1.7-1.5c-1.5,0-1.7,1.3-1.7,1.5l0.2,0.2h3L149.3,110.7z"
   id="path74"
   style="fill:#ffffff" />
		<path
   class="st1"
   d="M162.6,116.6h-2.3l-0.2-0.2v-5.5c0-1-0.4-1.7-1.5-1.7c-1.3,0-2.1,0.8-2.1,2.5v4.7l-0.2,0.2H154l-0.2-0.2v-9.1    l0.2-0.2h2.1l0.2,0.2l0.2,0.6h0.2c0.4-0.4,1.1-1,2.5-1c2.3,0,3.6,1.5,3.6,3.8v5.7L162.6,116.6z"
   id="path76"
   style="fill:#ffffff" />
		<path
   class="st1"
   d="M168.5,116.8c-2.7,0-4.2-1.3-4.2-3.2l0.2-0.2h2.3l0.2,0.2c0,0.8,0.6,0.9,1.5,0.9c0.9,0,1.5-0.2,1.5-0.8    c0-0.8-0.8-0.8-1.9-1c-1.1-0.2-3.6-0.8-3.6-3c0-1.5,1.1-2.8,4-2.8c2.3,0,4,1,4,2.8l-0.2,0.2H170l-0.2-0.2c0-0.4-0.4-0.6-1.3-0.6    c-1,0-1.3,0.2-1.3,0.8c0,0.8,1.1,0.8,2.3,1c1.1,0.2,3.2,0.6,3.2,2.8C172.6,115.3,171.5,116.8,168.5,116.8z"
   id="path78"
   style="fill:#ffffff" />
		<path
   class="st1"
   d="M187.8,112.6l-0.2,0.2h-5.9l-0.2,0.2c0,0.4,0.4,1.5,1.9,1.5c0.6,0,1.1-0.2,1.3-0.6l0.2-0.2h2.3l0.2,0.2    c-0.2,1.1-1.1,2.8-4,2.8c-3.2,0-4.8-2.3-4.8-4.9c0-2.7,1.5-4.9,4.6-4.9c3,0,4.6,2.3,4.6,4.9V112.6z M185,110.7    c0-0.2-0.2-1.5-1.7-1.5s-1.7,1.3-1.7,1.5l0.2,0.2h3L185,110.7z"
   id="path80"
   style="fill:#ffffff" />
		<path
   class="st1"
   d="M193,113.8c0,0.4,0.2,0.6,0.6,0.6h1.7l0.2,0.2v1.9l-0.2,0.2h-1.7c-1.7,0-3.2-0.8-3.2-2.8v-4.2l-0.2-0.2h-1.3    l-0.2-0.2v-1.9l0.2-0.2h1.3l0.2-0.2v-1.7l0.2-0.2h2.3l0.2,0.2v1.7l0.2,0.2h2.1l0.2,0.2v1.9l-0.2,0.2h-2.1l-0.2,0.2V113.8z"
   id="path82"
   style="fill:#ffffff" />
		<path
   class="st1"
   d="M209.9,116.6h-2.1l-0.2-0.2l-0.2-0.4h-0.2c0,0-0.8,0.8-2.1,0.8c-2.1,0-3.4-1.1-3.4-3c0-2.8,2.7-3.2,4.2-3.2    c0.8,0,1.3,0.2,1.3,0.2l0.2-0.2v-0.2c0-0.9-0.2-1.1-1.3-1.1c-0.6,0-1.1,0-1.3,0.6l-0.2,0.2h-2.3l-0.2-0.2c0-1.1,1-2.8,4-2.8    c3,0,4,1.5,4,4.4v5.1L209.9,116.6z M207.2,112.6c0,0-0.4-0.2-1.1-0.2c-1.1,0-1.7,0.4-1.7,1.1c0,0.6,0.4,0.9,1.3,0.9    s1.7-0.6,1.7-1.3v-0.4L207.2,112.6z"
   id="path84"
   style="fill:#ffffff" />
		<path
   class="st1"
   d="M221.1,115.7c0,3.4-2.1,4.9-4.7,4.9c-2.3,0-3.8-1.1-4-2.8l0.2-0.2h2.3l0.2,0.2c0.2,0.4,0.6,0.6,1.3,0.6    c1.3,0,2.1-0.8,2.1-2.5h-0.2c0,0-0.8,1-2.5,1c-2.3,0-4.2-1.9-4.2-4.9c0-3,1.9-4.9,4.2-4.9c1.7,0,2.5,1,2.5,1h0.2l0.2-0.6l0.2-0.2    h2.1l0.2,0.2V115.7z M216.3,114.5c1.5,0,2.1-1.1,2.1-2.7c0-1.5-0.6-2.7-2.1-2.7s-2.1,1.1-2.1,2.7    C214.2,113.4,214.8,114.5,216.3,114.5z"
   id="path86"
   style="fill:#ffffff" />
		<path
   class="st1"
   d="M232.3,115.7c0,3.4-2.1,4.9-4.7,4.9c-2.3,0-3.8-1.1-4-2.8l0.2-0.2h2.3l0.2,0.2c0.2,0.4,0.6,0.6,1.3,0.6    c1.3,0,2.1-0.8,2.1-2.5h-0.2c0,0-0.8,1-2.5,1c-2.3,0-4.2-1.9-4.2-4.9c0-3,1.9-4.9,4.2-4.9c1.7,0,2.5,1,2.5,1h0.2l0.2-0.6l0.2-0.2    h2.1l0.2,0.2V115.7z M227.5,114.5c1.5,0,2.1-1.1,2.1-2.7c0-1.5-0.6-2.7-2.1-2.7s-2.1,1.1-2.1,2.7    C225.5,113.4,226,114.5,227.5,114.5z"
   id="path88"
   style="fill:#ffffff" />
		<path
   class="st1"
   d="M237,116.6h-2.3l-0.2-0.2v-12.9l0.2-0.2h2.3l0.2,0.2v12.9L237,116.6z"
   id="path90"
   style="fill:#ffffff" />
		<path
   class="st1"
   d="M243.7,116.8c-2.8,0-4.7-1.9-4.7-4.9c0-3,1.9-4.9,4.7-4.9s4.7,1.9,4.7,4.9    C248.4,114.9,246.5,116.8,243.7,116.8z M243.7,109.2c-1.3,0-2.1,1-2.1,2.7s0.8,2.7,2.1,2.7s2.1-0.9,2.1-2.7S245,109.2,243.7,109.2    z"
   id="path92"
   style="fill:#ffffff" />
		<path
   class="st1"
   d="M264.4,116.6h-2.3l-0.2-0.2v-5.5c0-1-0.4-1.7-1.5-1.7c-1.1,0-1.7,0.8-1.7,2.1v5.1l-0.2,0.2h-2.3l-0.2-0.2    v-5.5c0-1-0.4-1.7-1.5-1.7s-1.7,0.8-1.7,2.1v5.1l-0.2,0.2h-2.3l-0.2-0.2v-9.1l0.2-0.2h2.1l0.2,0.2l0.2,0.6h0.2c0,0,0.6-1,2.3-1    c1.5,0,2.3,0.8,2.7,1.3h0.2c0,0,0.8-1.3,2.8-1.3c2.3,0,3.6,1.3,3.6,3.8v5.7L264.4,116.6z"
   id="path94"
   style="fill:#ffffff" />
		<path
   class="st1"
   d="M275.2,112.6l-0.2,0.2h-5.9L269,113c0,0.4,0.4,1.5,1.9,1.5c0.6,0,1.1-0.2,1.3-0.6l0.2-0.2h2.3l0.2,0.2    c-0.2,1.1-1.1,2.8-4,2.8c-3.2,0-4.7-2.3-4.7-4.9c0-2.7,1.5-4.9,4.6-4.9c3,0,4.6,2.3,4.6,4.9V112.6z M271.2,105.8l-0.4,0.2h-1.7    l-0.2-0.2v-0.4l1.9-1.9l0.4-0.2h1.9l0.2,0.2v0.4L271.2,105.8z M272.4,110.7c0-0.2-0.2-1.5-1.7-1.5c-1.5,0-1.7,1.3-1.7,1.5l0.2,0.2    h3L272.4,110.7z"
   id="path96"
   style="fill:#ffffff" />
		<path
   class="st1"
   d="M283,109.4h-1.3c-1.5,0-2.1,0.8-2.1,2.5v4.6l-0.2,0.2h-2.3l-0.2-0.2v-9.1l0.2-0.2h2.1l0.2,0.2l0.2,0.6h0.2    c0,0,0.4-0.8,2.1-0.8h1.1l0.2,0.2v1.9L283,109.4z"
   id="path98"
   style="fill:#ffffff" />
		<path
   class="st1"
   d="M292,116.6h-2.1l-0.2-0.2l-0.2-0.4h-0.2c0,0-0.8,0.8-2.1,0.8c-2.1,0-3.4-1.1-3.4-3c0-2.8,2.7-3.2,4.2-3.2    c0.8,0,1.3,0.2,1.3,0.2l0.2-0.2v-0.2c0-0.9-0.2-1.1-1.3-1.1c-0.6,0-1.1,0-1.3,0.6l-0.2,0.2h-2.3l-0.2-0.2c0-1.1,1-2.8,4-2.8    c3,0,4,1.5,4,4.4v5.1L292,116.6z M289.3,112.6c0,0-0.4-0.2-1.1-0.2c-1.1,0-1.7,0.4-1.7,1.1c0,0.6,0.4,0.9,1.3,0.9s1.7-0.6,1.7-1.3    v-0.4L289.3,112.6z"
   id="path100"
   style="fill:#ffffff" />
		<path
   class="st1"
   d="M297.7,113.8c0,0.4,0.2,0.6,0.6,0.6h1.7l0.2,0.2v1.9l-0.2,0.2h-1.7c-1.7,0-3.2-0.8-3.2-2.8v-4.2l-0.2-0.2    h-1.3l-0.2-0.2v-1.9l0.2-0.2h1.3l0.2-0.2v-1.7l0.2-0.2h2.3l0.2,0.2v1.7l0.2,0.2h2.1l0.2,0.2v1.9l-0.2,0.2h-2.1l-0.2,0.2V113.8z"
   id="path102"
   style="fill:#ffffff" />
		<path
   class="st1"
   d="M304.5,105.6h-2.3l-0.2-0.2v-1.9l0.2-0.2h2.3l0.2,0.2v1.9L304.5,105.6z M304.5,116.6h-2.3l-0.2-0.2v-9.1    l0.2-0.2h2.3l0.2,0.2v9.1L304.5,116.6z"
   id="path104"
   style="fill:#ffffff" />
		<path
   class="st1"
   d="M311.1,116.8c-2.8,0-4.8-1.9-4.8-4.9c0-3,1.9-4.9,4.8-4.9s4.7,1.9,4.7,4.9C315.9,114.9,314,116.8,311.1,116.8    z M311.1,109.2c-1.3,0-2.1,1-2.1,2.7s0.8,2.7,2.1,2.7c1.3,0,2.1-0.9,2.1-2.7S312.5,109.2,311.1,109.2z"
   id="path106"
   style="fill:#ffffff" />
		<path
   class="st1"
   d="M326.3,116.6h-2.3l-0.2-0.2v-5.5c0-1-0.4-1.7-1.5-1.7c-1.3,0-2.1,0.8-2.1,2.5v4.7l-0.2,0.2h-2.3l-0.2-0.2    v-9.1l0.2-0.2h2.1l0.2,0.2l0.2,0.6h0.2c0.4-0.4,1.1-1,2.5-1c2.3,0,3.6,1.5,3.6,3.8v5.7L326.3,116.6z"
   id="path108"
   style="fill:#ffffff" />
	</g>
	<g
   id="Groupe_3"
   transform="translate(23 24.752)"
   style="fill:#ffffff">
		<g
   id="Tracé_6"
   style="fill:#ffffff">
			<path
   class="st1"
   d="M12.7,53.9c-4.6,0-7.4-1.5-7.4-5.4L5,48.1H1.9l-0.4,0.4c0,5.8,4.3,8.9,10.8,8.9c7.4,0,10.5-3.5,10.5-7.7     c0-5.4-3.9-7.4-9.3-8.1s-7.4-1.5-7.4-4.6c0-2.3,1.9-3.9,5.4-3.9c5,0,6.6,1.5,6.6,4.6l0.4,0.4h3.1l0.4-0.4c0-5.8-4.3-8.1-10.1-8.1     c-7,0-9.7,3.9-9.7,7.4c0,4.6,3.5,7,8.9,7.7s7.7,1.5,7.7,5C18.9,52.7,16.2,53.9,12.7,53.9z"
   id="path112"
   style="fill:#ffffff" />
		</g>
		<g
   id="Tracé_7"
   style="fill:#ffffff">
			<path
   class="st1"
   d="M46.7,33c3.9,0,6.2,1.9,7,4.6l0.4,0.4h3.1l0.4-0.4c-0.8-4.6-4.6-8.1-10.8-8.1c-8.1,0-12.8,5.8-12.8,13.9     s4.6,13.9,12.8,13.9c6.6,0,10.1-3.9,10.8-8.5l-0.4-0.4h-3.1l-0.4,0.4c-0.8,2.7-2.7,5-7,5c-5.8,0-8.9-4.3-8.9-10.5     S40.9,33,46.7,33z"
   id="path115"
   style="fill:#ffffff" />
		</g>
		<g
   id="Tracé_8"
   style="fill:#ffffff">
			<path
   class="st1"
   d="M20.9,67.1l-0.4,0.4v10.8l-0.4,0.4H7.3l-0.4-0.4V67.5l-0.4-0.4H3.4l-0.4,0.4v26.3l0.4,0.4h3.1l0.4-0.4V82.6     l0.4-0.4h12.8l0.4,0.4v11.2l0.4,0.4H24l0.4-0.4V67.5L24,67.1L20.9,67.1z"
   id="path118"
   style="fill:#ffffff" />
		</g>
		<g
   id="Tracé_9"
   style="fill:#ffffff">
			<path
   class="st1"
   d="M57.5,74.8c0-5.4-3.5-7.7-8.9-7.7h-12l-0.4,0.4v3.1h12.4c3.5,0,5,1.2,5,4.3s-1.5,4.3-5,4.3H36.2v14.7     l0.4,0.4h3.1l0.4-0.4V83l0.4-0.4h6.2l0.8,0.4l7,10.8l0.8,0.4h1.5l0.4-0.4v-2.7l-5.4-8.5v-0.4C55.2,81.4,57.5,79.1,57.5,74.8z"
   id="path121"
   style="fill:#ffffff" />
		</g>
		<g
   id="Tracé_10"
   style="fill:#ffffff">
			<path
   class="st1"
   d="M57.9,17.4L28.9,0L0,17.4l1.8,2.9L28.9,4l27.2,16.3L57.9,17.4z"
   id="path124"
   style="fill:#ffffff" />
		</g>
	</g>
</g>
</svg>
